<svg width="109" height="16" viewBox="0 0 109 16" fill="none" xmlns="http://www.w3.org/2000/svg">
<path d="M6.18 15.24C5.23333 15.24 4.38 15.0933 3.62 14.8C2.86 14.4933 2.21333 14.0467 1.68 13.46C1.14667 12.86 0.733333 12.12 0.44 11.24C0.146667 10.3467 1.49012e-08 9.30667 1.49012e-08 8.12C1.49012e-08 6.94667 0.146667 5.90667 0.44 5C0.733333 4.08 1.14667 3.31333 1.68 2.7C2.21333 2.07333 2.86 1.6 3.62 1.28C4.38 0.959999 5.23333 0.799999 6.18 0.799999C7.47333 0.799999 8.54 1.06667 9.38 1.6C10.22 2.12 10.8933 2.94667 11.4 4.08L8.78 5.44C8.59333 4.85333 8.3 4.38667 7.9 4.04C7.51333 3.68 6.94 3.5 6.18 3.5C5.28667 3.5 4.56667 3.79333 4.02 4.38C3.48667 4.95333 3.22 5.79333 3.22 6.9V9.14C3.22 10.2467 3.48667 11.0933 4.02 11.68C4.56667 12.2533 5.28667 12.54 6.18 12.54C6.92667 12.54 7.52 12.34 7.96 11.94C8.41333 11.5267 8.74667 11.0333 8.96 10.46L11.44 11.9C10.92 12.9667 10.2333 13.7933 9.38 14.38C8.54 14.9533 7.47333 15.24 6.18 15.24ZM17.7873 15.24C16.9873 15.24 16.274 15.1133 15.6473 14.86C15.0207 14.5933 14.4873 14.2267 14.0473 13.76C13.6207 13.28 13.294 12.7 13.0673 12.02C12.854 11.34 12.7473 10.58 12.7473 9.74C12.7473 8.91333 12.854 8.16667 13.0673 7.5C13.2807 6.82 13.594 6.24 14.0073 5.76C14.434 5.28 14.954 4.91333 15.5673 4.66C16.1807 4.39333 16.8807 4.26 17.6673 4.26C18.534 4.26 19.274 4.40667 19.8873 4.7C20.514 4.99333 21.0207 5.38667 21.4073 5.88C21.8073 6.37333 22.094 6.94667 22.2673 7.6C22.454 8.24 22.5473 8.91333 22.5473 9.62V10.5H15.8073V10.66C15.8073 11.3533 15.994 11.9067 16.3673 12.32C16.7407 12.72 17.3273 12.92 18.1273 12.92C18.7407 12.92 19.2407 12.8 19.6273 12.56C20.014 12.3067 20.374 12.0067 20.7073 11.66L22.1873 13.5C21.7207 14.0467 21.1073 14.4733 20.3473 14.78C19.6007 15.0867 18.7473 15.24 17.7873 15.24ZM17.7273 6.44C17.1273 6.44 16.654 6.64 16.3073 7.04C15.974 7.42667 15.8073 7.94667 15.8073 8.6V8.76H19.4873V8.58C19.4873 7.94 19.3407 7.42667 19.0473 7.04C18.7673 6.64 18.3273 6.44 17.7273 6.44ZM24.6378 15V4.5H27.5978V6.28H27.7178C27.9045 5.73333 28.2311 5.26 28.6978 4.86C29.1645 4.46 29.8111 4.26 30.6378 4.26C31.7178 4.26 32.5311 4.62 33.0778 5.34C33.6378 6.06 33.9178 7.08667 33.9178 8.42V15H30.9578V8.66C30.9578 7.98 30.8511 7.48 30.6378 7.16C30.4245 6.82667 30.0445 6.66 29.4978 6.66C29.2578 6.66 29.0245 6.69333 28.7978 6.76C28.5711 6.81333 28.3645 6.90667 28.1778 7.04C28.0045 7.17333 27.8645 7.34 27.7578 7.54C27.6511 7.72667 27.5978 7.94667 27.5978 8.2V15H24.6378ZM40.2319 15C39.2052 15 38.4252 14.74 37.8919 14.22C37.3719 13.7 37.1119 12.94 37.1119 11.94V6.8H35.6319V4.5H36.3719C36.7719 4.5 37.0452 4.40667 37.1919 4.22C37.3385 4.02 37.4119 3.74 37.4119 3.38V1.66H40.0719V4.5H42.1519V6.8H40.0719V12.7H41.9919V15H40.2319ZM48.51 15.24C47.71 15.24 46.9967 15.1133 46.37 14.86C45.7433 14.5933 45.21 14.2267 44.77 13.76C44.3433 13.28 44.0167 12.7 43.79 12.02C43.5767 11.34 43.47 10.58 43.47 9.74C43.47 8.91333 43.5767 8.16667 43.79 7.5C44.0033 6.82 44.3167 6.24 44.73 5.76C45.1567 5.28 45.6767 4.91333 46.29 4.66C46.9033 4.39333 47.6033 4.26 48.39 4.26C49.2567 4.26 49.9967 4.40667 50.61 4.7C51.2367 4.99333 51.7433 5.38667 52.13 5.88C52.53 6.37333 52.8167 6.94667 52.99 7.6C53.1767 8.24 53.27 8.91333 53.27 9.62V10.5H46.53V10.66C46.53 11.3533 46.7167 11.9067 47.09 12.32C47.4633 12.72 48.05 12.92 48.85 12.92C49.4633 12.92 49.9633 12.8 50.35 12.56C50.7367 12.3067 51.0967 12.0067 51.43 11.66L52.91 13.5C52.4433 14.0467 51.83 14.4733 51.07 14.78C50.3233 15.0867 49.47 15.24 48.51 15.24ZM48.45 6.44C47.85 6.44 47.3767 6.64 47.03 7.04C46.6967 7.42667 46.53 7.94667 46.53 8.6V8.76H50.21V8.58C50.21 7.94 50.0633 7.42667 49.77 7.04C49.49 6.64 49.05 6.44 48.45 6.44ZM55.3605 15V4.5H58.3205V6.78H58.4205C58.4738 6.48667 58.5671 6.20667 58.7005 5.94C58.8338 5.66 59.0071 5.41333 59.2205 5.2C59.4471 4.98667 59.7138 4.82 60.0205 4.7C60.3271 4.56667 60.6871 4.5 61.1005 4.5H61.6205V7.26H60.8805C60.0138 7.26 59.3671 7.37333 58.9405 7.6C58.5271 7.82667 58.3205 8.24667 58.3205 8.86V15H55.3605Z" fill="white"/>
<path d="M63.7864 15V1.04H69.7864C71.0797 1.04 72.0797 1.42 72.7864 2.18C73.4931 2.94 73.8464 3.96 73.8464 5.24C73.8464 6.52 73.4931 7.54 72.7864 8.3C72.0797 9.06 71.0797 9.44 69.7864 9.44H66.0464V15H63.7864ZM66.0464 7.46H69.6464C70.2197 7.46 70.6664 7.31333 70.9864 7.02C71.3064 6.71333 71.4664 6.28 71.4664 5.72V4.76C71.4664 4.2 71.3064 3.77333 70.9864 3.48C70.6664 3.17333 70.2197 3.02 69.6464 3.02H66.0464V7.46ZM79.8548 15.24C79.1348 15.24 78.4748 15.1133 77.8748 14.86C77.2882 14.6067 76.7882 14.2467 76.3748 13.78C75.9615 13.3 75.6415 12.7267 75.4148 12.06C75.1882 11.38 75.0748 10.6267 75.0748 9.8C75.0748 8.97333 75.1882 8.22667 75.4148 7.56C75.6415 6.88 75.9615 6.30667 76.3748 5.84C76.7882 5.36 77.2882 4.99333 77.8748 4.74C78.4748 4.48667 79.1348 4.36 79.8548 4.36C80.5748 4.36 81.2282 4.48667 81.8148 4.74C82.4148 4.99333 82.9215 5.36 83.3348 5.84C83.7482 6.30667 84.0682 6.88 84.2948 7.56C84.5215 8.22667 84.6348 8.97333 84.6348 9.8C84.6348 10.6267 84.5215 11.38 84.2948 12.06C84.0682 12.7267 83.7482 13.3 83.3348 13.78C82.9215 14.2467 82.4148 14.6067 81.8148 14.86C81.2282 15.1133 80.5748 15.24 79.8548 15.24ZM79.8548 13.44C80.6015 13.44 81.2015 13.2133 81.6548 12.76C82.1082 12.2933 82.3348 11.6 82.3348 10.68V8.92C82.3348 8 82.1082 7.31333 81.6548 6.86C81.2015 6.39333 80.6015 6.16 79.8548 6.16C79.1082 6.16 78.5082 6.39333 78.0548 6.86C77.6015 7.31333 77.3748 8 77.3748 8.92V10.68C77.3748 11.6 77.6015 12.2933 78.0548 12.76C78.5082 13.2133 79.1082 13.44 79.8548 13.44ZM88.1639 2.74C87.7106 2.74 87.3772 2.63333 87.1639 2.42C86.9639 2.20667 86.8639 1.93333 86.8639 1.6V1.26C86.8639 0.926666 86.9639 0.653333 87.1639 0.439999C87.3772 0.226666 87.7106 0.12 88.1639 0.12C88.6172 0.12 88.9439 0.226666 89.1439 0.439999C89.3439 0.653333 89.4439 0.926666 89.4439 1.26V1.6C89.4439 1.93333 89.3439 2.20667 89.1439 2.42C88.9439 2.63333 88.6172 2.74 88.1639 2.74ZM87.0639 4.6H89.2439V15H87.0639V4.6ZM92.3569 15V4.6H94.5369V6.32H94.6369C94.8635 5.76 95.2035 5.29333 95.6569 4.92C96.1235 4.54667 96.7569 4.36 97.5569 4.36C98.6235 4.36 99.4502 4.71333 100.037 5.42C100.637 6.11333 100.937 7.10667 100.937 8.4V15H98.7569V8.68C98.7569 7.05333 98.1035 6.24 96.7969 6.24C96.5169 6.24 96.2369 6.28 95.9569 6.36C95.6902 6.42667 95.4502 6.53333 95.2369 6.68C95.0235 6.82667 94.8502 7.01333 94.7169 7.24C94.5969 7.46667 94.5369 7.73333 94.5369 8.04V15H92.3569ZM106.838 15C106.078 15 105.505 14.8067 105.118 14.42C104.732 14.02 104.538 13.46 104.538 12.74V6.38H102.918V4.6H103.798C104.158 4.6 104.405 4.52 104.538 4.36C104.685 4.2 104.758 3.94 104.758 3.58V1.76H106.718V4.6H108.898V6.38H106.718V13.22H108.738V15H106.838Z" fill="#00C2FF"/>
</svg>
