<svg width="21" height="21" viewBox="0 0 21 21" fill="none" xmlns="http://www.w3.org/2000/svg">
<path d="M0.848285 9.65173H20.1517C20.6202 9.65173 21 10.0315 21 10.5C21 10.9685 20.6202 11.3483 20.1517 11.3483H0.848285C0.379764 11.3483 0 10.9685 0 10.5C0 10.0315 0.379764 9.65173 0.848285 9.65173Z" fill="white"/>
<path d="M0.848285 3.21722H20.1517C20.6202 3.21722 21 3.59703 21 4.06551C21 4.53399 20.6202 4.91379 20.1517 4.91379H0.848285C0.379764 4.91379 0 4.53399 0 4.06551C0 3.59703 0.379764 3.21722 0.848285 3.21722Z" fill="white"/>
<path d="M0.848285 16.0862H20.1517C20.6202 16.0862 21 16.4659 21 16.9345C21 17.403 20.6202 17.7828 20.1517 17.7828H0.848285C0.379764 17.7828 0 17.403 0 16.9345C0 16.4659 0.379764 16.0862 0.848285 16.0862Z" fill="white"/>
</svg>
