<svg width="24" height="24" viewBox="0 0 24 24" fill="none" xmlns="http://www.w3.org/2000/svg">
<path d="M23.7761 14.72C23.0556 13.76 22.3352 13.76 20.5739 14.68L17.1316 16.8C16.6513 17.08 15.5705 17.16 14.5699 17.16C14.77 16.8 14.6899 16.36 14.3297 15.84C13.6893 14.92 12.6086 14.36 11.4478 14.36H9.88669C9.04612 14.36 8.24556 14.12 7.60514 13.64C6.16084 12.5575 3.90232 13.7354 2.80189 14.438V13.6H0V24H2.80189V22.8H8.0054C8.80596 22.8 9.64653 22.72 10.447 22.68L15.6506 21.88C15.8507 21.88 16.0508 21.84 16.211 21.8C16.6913 21.7199 17.1316 21.4799 17.5318 21.1199L23.5759 16.3199C24.0563 15.92 24.1364 15.2 23.7761 14.72ZM2.00133 23.2H0.800512V14.4H2.00133V15V22.8V23.2ZM23.0957 15.8L17.0115 20.52L16.9715 20.56C16.6913 20.8 16.4111 20.96 16.0909 21H16.0509C15.8908 21.04 15.7707 21.04 15.6106 21.04L10.327 21.84C9.56651 21.96 8.76595 22 8.00545 22H2.80189V15.4C3.76254 14.72 6.00407 13.44 7.12482 14.32C7.88532 14.88 8.88603 15.2 9.88669 15.2H11.4478C12.3684 15.2 13.209 15.5999 13.7293 16.4C13.8894 16.64 13.9294 16.88 13.8894 16.96C13.7693 17.16 13.289 17.24 12.7686 17.28C12.7147 17.28 12.6609 17.28 12.6086 17.28C12.5054 17.28 12.408 17.28 12.3284 17.28H8.72594C7.48511 17.28 6.72456 17.88 6.72456 18.88C6.72456 19.12 6.88466 19.28 7.12482 19.28C7.36498 19.28 7.52507 19.12 7.52507 18.88C7.52507 18.68 7.52507 18.08 8.72589 18.08H12.2883C12.3713 18.08 12.4742 18.08 12.6086 18.08C12.6687 18.08 12.7345 18.08 12.8087 18.08C12.8487 18.08 12.9288 18.08 13.0089 18.08C14.8901 18.1199 16.6513 18.08 17.572 17.6L21.0143 15.4799C22.6954 14.6399 22.8555 14.84 23.1758 15.32C23.2557 15.44 23.2557 15.68 23.0957 15.8Z" fill="white"/>
<path d="M3.1206 12.64C3.20067 12.72 3.32075 12.8 3.44083 12.8H20.5725C20.7326 12.8 20.8526 12.72 20.8927 12.6L22.3337 10.5999C22.4137 10.4799 22.4538 10.32 22.3737 10.2C22.2936 10.08 22.1735 9.99994 22.0134 9.99994H21.2037C20.9996 5.23819 17.1719 1.41305 12.4069 1.20914V0.799969H13.2075C13.4477 0.799969 13.6077 0.639984 13.6077 0.399984C13.6077 0.159984 13.4476 0 13.2074 0H10.8058C10.5656 0 10.4056 0.159984 10.4056 0.399984C10.4056 0.639984 10.5656 0.799969 10.8058 0.799969H11.6064V1.20914C6.84139 1.41305 3.01365 5.23819 2.80961 9.99994H1.99981C1.83971 9.99994 1.67957 10.1199 1.63956 10.2399C1.59955 10.3599 1.59955 10.5199 1.67957 10.6399L3.1206 12.64ZM12.0066 2.00002C16.5297 2.00002 20.2122 5.56003 20.4123 10H3.60092C3.84109 5.55998 7.52355 2.00002 12.0066 2.00002ZM3.20062 10.8H20.8126H21.2128L20.3723 12H3.64094L2.80037 10.8H3.20062Z" fill="white"/>
<path d="M12.0084 2.79999C9.32657 2.79999 6.80486 4.23999 5.40389 6.6C5.32382 6.80002 5.36388 7.04002 5.56399 7.16002C5.64406 7.2 5.68407 7.2 5.76414 7.2C5.92423 7.2 6.04431 7.11999 6.12438 6.99999C7.3252 4.92 9.60675 3.6 12.0084 3.6C12.2485 3.6 12.4086 3.44002 12.4086 3.20002C12.4086 2.96002 12.2485 2.79999 12.0084 2.79999Z" fill="white"/>
</svg>
