<svg width="26" height="26" viewBox="0 0 26 26" fill="none" xmlns="http://www.w3.org/2000/svg">
<path d="M13.0007 0C5.82122 0 0.000976562 5.82042 0.000976562 12.9999C0.000976562 20.1791 5.82122 26 13.0007 26C20.1801 26 26.0008 20.1791 26.0008 12.9999C26.0008 5.82024 20.1801 0 13.0007 0ZM13.0403 19.133V19.1328H12.9609H7.40793C7.40793 15.0719 10.9745 15.0729 11.7659 14.011L11.8565 13.5268C10.7445 12.9633 9.9596 11.6047 9.9596 10.0157C9.9596 7.92237 11.3213 6.22507 13.0007 6.22507C14.68 6.22507 16.0417 7.92237 16.0417 10.0157C16.0417 11.5912 15.2708 12.9413 14.1736 13.5137L14.2768 14.064C15.1451 15.0743 18.593 15.1402 18.593 19.133H13.0403Z" fill="white"/>
</svg>
